<svg width="58" height="50" viewBox="0 0 58 50" fill="none" xmlns="http://www.w3.org/2000/svg">
<path d="M13.675 21.5026C12.4562 21.3802 11.307 20.4305 10.9187 19.2245C10.3255 17.3823 11.4078 15.397 13.2648 14.9208C15.2777 14.4047 17.2933 16.0491 17.2698 18.1882C17.2538 19.6466 16.3453 20.9132 15.0005 21.352C14.6015 21.4822 14.0712 21.5424 13.675 21.5026Z" fill="#F8AE28"/>
<path d="M10.9558 39.9946C10.8107 39.9162 10.6974 39.78 10.6174 39.588C10.5021 39.3113 10.5001 39.1061 10.5702 34.6214C10.6412 30.0719 10.6474 29.9248 10.7951 29.2657C11.6311 25.5347 14.1495 22.5844 17.5917 21.3039C18.5424 20.9502 19.9187 20.6869 20.7679 20.6963L21.2538 20.7016L21.218 23.9574L21.1822 27.2131L20.6482 27.2875C19.1598 27.4949 17.9821 28.4494 17.4188 29.9049C17.2559 30.326 17.2433 30.4409 17.1775 32.1134C17.101 34.058 17.0098 34.5831 16.5614 35.6577C15.629 37.8925 13.272 40.01 11.6271 40.0904C11.2847 40.1071 11.1206 40.0839 10.9558 39.9946Z" fill="#F8AE28"/>
<path d="M50.8115 45.8025C49.6439 45.5399 48.8801 44.3785 49.0822 43.1733C49.1309 42.8834 49.2794 42.5367 49.6396 41.873C51.2795 38.8504 52.2334 35.7868 52.64 32.2365C52.7694 31.1067 52.7804 28.5439 52.661 27.341C52.2961 23.6652 51.2333 20.2479 49.5216 17.2471C45.9191 10.9314 39.9745 6.62231 33.0677 5.32032C31.5668 5.03739 31.0066 4.98919 28.9633 4.96724C26.87 4.94476 26.128 4.99938 24.5279 5.29373C17.7508 6.54036 11.8289 10.7025 8.21132 16.7615C6.40406 19.7884 5.31858 22.9963 4.84303 26.7157C4.67491 28.0305 4.64657 30.6357 4.78545 32.0105C5.12886 35.4108 6.06493 38.6142 7.52694 41.3924C8.07938 42.4422 8.13254 43.0952 7.73216 43.913C7.06359 45.2786 5.28008 45.5783 4.21327 44.5042C3.91315 44.2021 3.62759 43.6948 2.97755 42.3092C-0.489934 34.9181 -0.701264 26.2846 2.39219 18.396C3.4006 15.8245 4.92407 13.1859 6.65258 11.0171C7.34266 10.1513 8.8248 8.50583 9.20321 8.18545C9.30643 8.09806 9.5809 7.84895 9.81313 7.63187C11.4396 6.11159 13.6767 4.59545 16.0151 3.42867C18.9967 1.94102 22.0813 1.04153 25.6468 0.620066C27.1491 0.442487 30.6997 0.465362 32.1808 0.662161C35.8323 1.14735 38.8598 2.08525 41.9171 3.67841C44.6455 5.10016 46.9484 6.80756 48.9826 8.91685C54.0341 14.1547 56.9467 21.1747 57.1984 28.7186C57.3633 33.6602 56.3456 38.4636 54.2127 42.8103C53.0209 45.2392 52.5592 45.7393 51.4172 45.8381C51.2391 45.8535 50.9665 45.8372 50.8115 45.8025Z" fill="#2A78CD"/>
<path d="M41.2259 45.0905C40.8518 45.0782 40.5164 45.111 40.4324 45.1956C40.3434 45.2853 40.3266 45.5748 40.307 47.3542C40.2875 49.1337 40.2979 49.4235 40.3849 49.5151C40.5452 49.6838 41.7222 49.6757 42.1864 49.5027C42.6553 49.328 43.1499 48.8734 43.3774 48.4079C43.6367 47.8774 43.6795 47.1161 43.4817 46.5569C43.2895 46.0137 42.766 45.4594 42.2521 45.2549C42.0129 45.1598 41.5999 45.1027 41.2259 45.0905ZM41.0995 45.8974L41.3925 45.9007C41.9455 45.9067 42.4771 46.2746 42.7133 46.8145C43.0141 47.5021 42.6574 48.3787 41.9419 48.7109C41.7988 48.7773 41.5435 48.8307 41.3745 48.8298L41.0673 48.828L41.0834 47.3629L41.0995 45.8974Z" fill="#F4F4F4"/>
<path d="M15.6662 44.8076C15.2384 44.798 14.8306 44.8309 14.7488 44.9134C14.6598 45.003 14.643 45.2925 14.6234 47.072C14.6039 48.8514 14.6143 49.1414 14.7013 49.233C14.8323 49.3709 15.1067 49.3711 15.2576 49.2335C15.3592 49.1409 15.3782 49.0177 15.3849 48.4117L15.3927 47.6988L15.9299 47.6703C16.53 47.6384 16.9089 47.4871 17.145 47.1851C17.7288 46.4382 17.5236 45.4033 16.7032 44.9573C16.5416 44.8694 16.0939 44.8172 15.6662 44.8076ZM15.4156 45.6154L15.8385 45.62C16.3189 45.6253 16.5351 45.7354 16.6287 46.0222C16.7139 46.2831 16.6468 46.542 16.4548 46.694C16.3275 46.7948 16.1911 46.8228 15.8466 46.819L15.4024 46.8142L15.409 46.2149L15.4156 45.6154Z" fill="#F4F4F4"/>
<path d="M11.3182 44.676C10.6913 44.668 10.2178 44.8575 9.79109 45.2873C8.64868 46.4378 9.02993 48.543 10.4925 49.16C10.7429 49.2656 10.9297 49.2923 11.3323 49.2793C11.959 49.259 12.3701 49.0741 12.7769 48.6297C13.5277 47.8094 13.6485 46.6484 13.0802 45.714C12.6471 45.0018 12.1113 44.6861 11.3182 44.676ZM11.3079 45.5047C11.7642 45.5118 12.222 45.7753 12.4728 46.3464C12.7417 46.9586 12.6296 47.5617 12.1555 48.0538C11.9668 48.2496 11.7659 48.386 11.6003 48.4307C11.2823 48.5164 11.1431 48.5119 10.872 48.4073C10.2952 48.1847 9.95915 47.647 9.96672 46.9589C9.9769 46.0321 10.6408 45.4944 11.3079 45.5047Z" fill="#F4F4F4"/>
<path d="M45.5412 49.5845C45.2397 49.4794 44.8535 49.2489 44.6365 49.0446C44.4369 48.8567 44.4495 48.5667 44.6635 48.4257C44.8476 48.3045 44.789 48.2854 45.5298 48.708C45.9035 48.9212 46.2236 48.9785 46.5527 48.8911C46.8937 48.8006 47.2139 48.5295 47.2161 48.3294C47.2184 48.1183 46.9163 47.8663 46.5344 47.7606C45.7349 47.5393 45.3579 47.4019 45.1553 47.258C44.377 46.7052 44.5018 45.6781 45.4067 45.1899C45.6182 45.0759 45.7765 45.0508 46.2493 45.0561C46.7797 45.0622 46.8671 45.0824 47.2321 45.2832C47.4524 45.4045 47.6817 45.5825 47.7415 45.6788C47.8389 45.8356 47.8401 45.8721 47.7531 46.0283C47.6114 46.2827 47.3967 46.2735 46.8845 45.9909C46.5022 45.78 46.3943 45.7488 46.1551 45.7796C45.7987 45.8256 45.5 46.0015 45.4507 46.1944C45.3629 46.5383 45.5477 46.6767 46.4199 46.9198C47.3965 47.192 47.7937 47.4878 47.9334 48.0472C48.0703 48.5953 47.7636 49.1777 47.1772 49.4831C46.7896 49.6849 45.9743 49.7354 45.5412 49.5845Z" fill="#F4F4F4"/>
<path d="M35.9178 49.4651C35.8288 49.3715 35.8212 49.1042 35.8563 47.2839L35.8962 45.2094L36.0785 45.1219C36.2333 45.0476 36.2824 45.0494 36.4042 45.1335C36.4831 45.188 36.9621 45.8326 37.4687 46.566L38.3898 47.8994L38.4213 46.6377C38.4559 45.2557 38.4893 45.1362 38.8407 45.1401C39.2204 45.1443 39.2283 45.1929 39.2042 47.387C39.1838 49.2392 39.1734 49.3942 39.0627 49.4951C38.9969 49.555 38.8674 49.6032 38.7747 49.6021C38.5762 49.6 38.4925 49.4967 37.4136 47.922L36.6549 46.8146L36.6085 48.0863C36.5743 49.0265 36.5388 49.3864 36.4722 49.4669C36.3579 49.6053 36.05 49.6043 35.9178 49.4651Z" fill="#F4F4F4"/>
<path d="M34.0002 49.4398C33.8755 49.2818 33.8819 45.4655 34.0072 45.2204C34.1148 45.01 34.4646 44.9621 34.6441 45.1331C34.7591 45.2427 34.7649 45.3674 34.7437 47.2934C34.7229 49.1889 34.7126 49.3452 34.6017 49.4463C34.448 49.5863 34.113 49.5828 34.0002 49.4398Z" fill="#F4F4F4"/>
<path d="M28.7405 49.3873C28.6535 49.2957 28.6431 49.0059 28.6626 47.2264C28.6822 45.4469 28.699 45.1574 28.788 45.0678C28.8948 44.9602 29.1859 44.9333 29.3069 45.0198C29.3451 45.0471 29.6407 45.4545 29.9636 45.9252C30.2866 46.3958 30.5603 46.781 30.5718 46.7811C30.5834 46.7812 30.8518 46.417 31.1683 45.9717C31.8164 45.06 31.878 44.997 32.1184 44.9997C32.4962 45.0038 32.5037 45.0512 32.4792 47.2799C32.4585 49.1643 32.4482 49.3202 32.3374 49.4212C32.1864 49.5588 31.912 49.5585 31.781 49.4207C31.6967 49.332 31.6827 49.1125 31.6942 48.0653C31.7017 47.3781 31.6898 46.7966 31.6675 46.7732C31.6453 46.7499 31.4653 46.9602 31.2675 47.2407C30.8443 47.8408 30.761 47.9155 30.5181 47.9129C30.3625 47.9111 30.272 47.8194 29.9064 47.2924L29.4774 46.6739L29.4456 47.9664C29.4189 49.0513 29.3966 49.2781 29.3068 49.378C29.1751 49.5245 28.8757 49.5295 28.7405 49.3873Z" fill="#F4F4F4"/>
<path d="M22.0115 49.3124C21.9225 49.2188 21.915 48.9516 21.95 47.1312L21.9899 45.0567L22.1722 44.9692C22.3281 44.8944 22.3763 44.8967 22.5041 44.985C22.5863 45.0418 23.0653 45.6861 23.5686 46.4167L24.4836 47.7451L24.5151 46.4843C24.5496 45.1031 24.5831 44.9835 24.9344 44.9874C25.3142 44.9916 25.322 45.0403 25.2979 47.2344C25.2776 49.0865 25.2672 49.2415 25.1564 49.3424C24.9888 49.4951 24.737 49.4749 24.5852 49.2965C24.5144 49.2133 24.1177 48.6469 23.7036 48.0379C22.6074 46.4255 22.7187 46.4411 22.7027 47.8973C22.6916 48.9047 22.6705 49.1562 22.5868 49.2763C22.465 49.4512 22.1615 49.4702 22.0115 49.3124Z" fill="#F4F4F4"/>
<path d="M18.3282 49.2557C18.2346 49.1469 18.225 48.898 18.2448 47.1003C18.2655 45.2159 18.2758 45.06 18.3866 44.959C18.4886 44.8661 18.6783 44.852 19.677 44.8629C20.9617 44.8771 21.0509 44.9037 21.0469 45.2721C21.0431 45.6169 20.8996 45.6697 19.9396 45.6798L19.069 45.6889L19.0447 46.1715L19.0203 46.6542L19.7701 46.6624C20.4798 46.6702 20.5281 46.6795 20.6768 46.8359C20.8671 47.0362 20.8749 47.2291 20.6999 47.4053C20.5835 47.5225 20.4828 47.5362 19.79 47.5285L19.011 47.52L19.0242 48.0363L19.0375 48.5527L19.9077 48.581C20.8672 48.6121 21.0095 48.6681 21.0057 49.0129C21.0016 49.3818 20.9129 49.406 19.6159 49.3917C18.5529 49.38 18.4232 49.3663 18.3282 49.2557Z" fill="#F4F4F4"/>
<path d="M28.0562 21.5394C27.5107 21.3816 27.0715 21.1088 26.6513 20.6666C24.862 18.7835 25.7726 15.656 28.2785 15.078C30.4911 14.5677 32.6004 16.699 32.1164 18.9557C31.8364 20.2613 30.9329 21.2556 29.7511 21.5586C29.2822 21.6788 28.5081 21.6699 28.0562 21.5394Z" fill="#E82B1F"/>
<path d="M28.2567 40.6181C27.3782 40.5186 26.6649 40.1746 26.2684 39.6591C25.5699 38.751 25.4664 37.9145 25.5133 33.5573L25.544 30.6803L25.386 30.1446C24.926 28.5844 23.6283 27.4791 22.0069 27.2667L21.6355 27.2181L21.6712 23.9623L21.707 20.7066L22.1113 20.7125C22.6405 20.7197 23.6999 20.8889 24.3699 21.0728C25.8203 21.4709 27.2848 22.2745 28.464 23.3193L28.9224 23.7254L29.2969 23.3871C30.3556 22.4308 32.05 21.5442 33.5273 21.1734C34.2012 21.0043 35.2641 20.8586 35.7933 20.8629L36.1976 20.8659L36.1619 24.1189L36.1261 27.372L35.6185 27.4402C34.13 27.6402 32.9384 28.6014 32.3593 30.0692L32.1841 30.5133L32.1005 34.0759C32.0102 37.9264 31.976 38.2837 31.6228 39.0663C31.3683 39.6303 31.1496 39.9066 30.7401 40.1815C30.15 40.5778 29.269 40.7327 28.2567 40.6181Z" fill="#E82B1F"/>
<path d="M42.911 21.654C41.7363 21.227 40.9124 20.1951 40.7396 18.9342C40.5039 17.2147 41.6691 15.5633 43.3584 15.2227C45.5963 14.7714 47.6283 16.9103 47.138 19.201C46.8845 20.3855 45.9005 21.4352 44.764 21.7333C44.2427 21.8701 43.4073 21.8343 42.911 21.654Z" fill="#49AC36"/>
<path d="M45.217 40.6228C43.8009 40.1257 41.9675 38.1957 41.1766 36.3697C40.6273 35.1013 40.4508 34.0574 40.4707 32.194C40.4829 31.0586 40.4686 30.861 40.3399 30.3834C39.9105 28.7901 38.5974 27.6472 36.9481 27.4311L36.5767 27.3825L36.6125 24.1172L36.6484 20.8519L37.3111 20.8973C41.561 21.1885 45.2767 24.2003 46.583 28.4126C47.0646 29.9658 47.0981 30.5227 47.0184 35.6722C46.9535 39.8621 46.9472 40.0082 46.8195 40.2257C46.747 40.3493 46.6073 40.5107 46.5091 40.5843C46.2592 40.7718 45.6897 40.7887 45.217 40.6228Z" fill="#49AC36"/>
</svg>
